<?xml version="1.0" encoding="utf-8"?>
<!-- Generator: Adobe Illustrator 22.0.1, SVG Export Plug-In . SVG Version: 6.00 Build 0)  -->
<svg version="1.1" id="Logo" xmlns="http://www.w3.org/2000/svg" xmlns:xlink="http://www.w3.org/1999/xlink" x="0px" y="0px"
	 viewBox="0 0 363.7 44" style="enable-background:new 0 0 363.7 44;" xml:space="preserve">
<style type="text/css">
	.st0{fill:#FFFFFF;}
</style>
<g>
	<polygon class="st0" points="349.4,5.7 349.4,5.7 349.4,5.7 	"/>
	<g>
		<path class="st0" d="M348.3,19.1c-0.7-0.1-1.2-0.2-1.5-0.6c-1.8-1.6-1.1-8.8,0.6-12.8l0,0h0c0.1-0.3,0.3-0.6,0.5-0.9
			c1.2-2.2,2.5-3.7,3.5-4.3c-4.2,2.3-10.2,13.4-8.4,16.7c0.2,0.3,0.4,0.5,0.7,0.7l0,0C344.4,18.6,346.3,19,348.3,19.1z"/>
		<g>
			<path class="st0" d="M360.2,9.9C360.2,9.9,360.2,9.9,360.2,9.9C360.2,9.9,360.2,9.9,360.2,9.9L360.2,9.9z"/>
			<path class="st0" d="M360.7,10.6c0.6,1,0.9,1.9,0.8,2.5c-0.5,2.8-9.2,6.3-13.2,5.9c-2-0.1-3.9-0.5-4.8-1.1l0,0
				c3.6,2.8,17.1,2.6,19-0.7c0.2-0.3,0.3-0.7,0.3-1.1C363,14.5,361.7,12.2,360.7,10.6z"/>
		</g>
		<path class="st0" d="M352.7,0.1c-0.4,0-0.9,0.1-1.4,0.4c-1,0.6-2.3,2.1-3.5,4.3c0.5-0.9,1.1-1.5,1.7-1.7c2.3-0.8,8,3.3,10.7,6.8h0
			c0,0,0,0,0,0c0.2,0.3,0.4,0.5,0.5,0.7c1,1.6,2.3,3.9,2.2,5.4C363.3,11.4,356.5,0.1,352.7,0.1z"/>
		<g>
			<path class="st0" d="M347.4,5.8c0.1-0.3,0.3-0.6,0.5-0.9c1.2-2.2,2.5-3.7,3.5-4.3c-0.5,0.3-1.1,0.7-1.7,1.3c-0.7,0.8-1.4,1.8-2,3
				c-0.2,0.3-0.3,0.6-0.5,0.9l0,0c-1.7,4-2.4,11.2-0.6,12.8c0.3,0.3,0.8,0.5,1.4,0.5c0.1,0,0.3,0,0.4,0c-0.7-0.1-1.2-0.2-1.5-0.6
				C345,16.9,345.6,9.8,347.4,5.8L347.4,5.8z"/>
		</g>
		<path class="st0" d="M362.7,14.2c-0.4-1.4-1.2-2.6-2-3.8C360,9.1,359,8.1,358,7.1c-1.1-1-2.2-1.9-3.5-2.7c-0.6-0.4-1.3-0.8-2-1.1
			c-0.7-0.3-1.4-0.6-2.1-0.6c-0.6,0-1.1,0.2-1.5,0.6c-0.5,0.4-0.8,1-1.1,1.6c0.3-0.6,0.7-1.1,1.2-1.5c0.6-0.4,1.3-0.4,2-0.3
			c0.7,0.2,1.4,0.5,2,0.8c0.7,0.3,1.3,0.7,1.9,1.2c2.2,1.5,4.2,3.4,5.7,5.6c0.4,0.6,0.8,1.2,1.1,1.9c0.3,0.7,0.7,1.3,0.9,2.1
			c0.2,0.7,0.3,1.4,0.1,2c-0.2,0.6-0.6,1.1-1.2,1.5c-1.2,0.8-2.6,1.1-4,1.4c-1.5,0.3-3.1,0.4-4.6,0.4c-1.4,0-2.7,0-4-0.2
			c-1.3-0.2-2.6-0.4-3.9-0.9c0,0,0,0,0.1,0c-0.6-0.2-1.1-0.5-1.6-0.9c1.6,1.6,7.1,2.1,8.6,2.1c1.6,0,3.2,0,4.7-0.2
			c1.4-0.2,2.9-0.5,4.2-1.1c0.8-0.4,1.5-0.9,1.8-1.7C363.3,16.1,363.1,15,362.7,14.2"/>
		<g>
			<path class="st0" d="M171.9,20.4h-0.4c-0.5-2.9-2.2-5-5.3-5c-4.7,0-7.4,3.9-7.4,8.3c0,5.1,3.9,8.6,7.6,8.6c3.4,0,4.7-2.5,5.9-5.3
				l0.4,0.2c-0.3,1.6-0.8,3.1-1.4,4.6c-1.7,0.8-3.4,1.1-5.3,1.1c-5.4,0-10.2-3.1-10.2-8.9c0-4.6,3.6-9.2,10.4-9.2
				c2,0,3.9,0.4,5.6,1.4V20.4z"/>
			<path class="st0" d="M175.5,24.1c0-2.8-0.1-3.2-2.1-3.4v-0.3l4.4-0.1c4.6-0.1,4.9,2.1,4.9,2.9c0,1.5-0.9,2.4-2.2,3l0.1,0.1
				c1.4,2.4,3.1,5.5,6.1,6.2l-0.1,0.3c-1.9-0.1-3.3,0-4.4-1.1c-1.2-1.2-2.1-2.8-2.5-3.6c-0.7-1.5-1.4-1.1-2.6-1.3v2.9
				c0,2,0,2.3,2.5,2.7v0.3h-6.3v-0.3c2.2-0.3,2.2-0.8,2.2-2.7V24.1z M177.1,26.5c1.7,0,3.8-0.8,3.8-2.8c0-2.1-1.9-3-3.8-2.9V26.5z"
				/>
			<path class="st0" d="M198.7,26.5c0,3.9-2.8,6.4-6.6,6.4c-3.8,0-6.6-2.5-6.6-6.4c0-3.8,2.8-6.3,6.6-6.3
				C196.7,20.2,198.7,23.3,198.7,26.5z M187.5,26.1c0,2.8,1.5,6.4,4.7,6.4c3,0,4.3-3,4.3-5.6c-0.1-3.2-1.9-6.2-4.7-6.2
				C188.8,20.6,187.5,23.6,187.5,26.1z"/>
			<path class="st0" d="M206.7,23.5h-0.3c-0.3-1.5-0.8-2.9-2.5-2.9c-1.2,0-2.1,0.8-2.1,2c0,3.1,5.7,3,5.7,6.7c0,2.3-2.3,3.5-4.4,3.5
				c-1.1,0-2.3-0.3-3.2-0.9l-0.5-3.1h0.3c0.5,1.7,1.7,3.4,3.6,3.4c1.3,0,2.4-0.8,2.4-2.2c0-3.2-5.5-2.9-5.5-6.5c0-2.1,2.1-3.4,4-3.4
				c0.9,0,1.8,0.3,2.6,0.7L206.7,23.5z"/>
			<path class="st0" d="M216,23.5h-0.3c-0.3-1.5-0.8-2.9-2.5-2.9c-1.2,0-2.1,0.8-2.1,2c0,3.1,5.7,3,5.7,6.7c0,2.3-2.3,3.5-4.4,3.5
				c-1.1,0-2.3-0.3-3.2-0.9l-0.5-3.1h0.3c0.5,1.7,1.7,3.4,3.6,3.4c1.3,0,2.4-0.8,2.4-2.2c0-3.2-5.5-2.9-5.5-6.5c0-2.1,2.1-3.4,4-3.4
				c0.9,0,1.8,0.3,2.6,0.7L216,23.5z"/>
			<path class="st0" d="M263,26.5c0,3.9-2.8,6.4-6.6,6.4c-3.8,0-6.6-2.5-6.6-6.4c0-3.8,2.8-6.3,6.6-6.3C261,20.2,263,23.3,263,26.5z
				 M251.9,26.1c0,2.8,1.5,6.4,4.7,6.4c3,0,4.3-3,4.3-5.6c-0.1-3.2-1.9-6.2-4.7-6.2C253.1,20.6,251.9,23.6,251.9,26.1z"/>
			<path class="st0" d="M267.7,33.1h-0.2L264.6,23c-0.5-1.3-0.5-1.9-2-2.3v-0.3h5.1v0.3c-2.2,0.3-1.8,1.2-1.3,2.7l1.9,6.4l2.8-7.5
				c-0.4-1.1-1-1.4-2-1.6v-0.3h5.3v0.3c-2,0.3-1.7,1.1-1.4,2.2l2.3,7.2l1.4-4.1c0.3-0.9,1.1-3.2,1.1-4c0-0.9-0.8-1-1.8-1.2v-0.3h4.7
				v0.3c-1.1,0.1-1.6,0.7-2,1.6l-1.3,3.4l-2.7,7.3h-0.2l-3.2-10L267.7,33.1z"/>
			<path class="st0" d="M281.1,32.4c2.2-0.3,2.2-0.8,2.2-2.7v-6.4c-0.1-1.9-0.1-2.4-2.2-2.7v-0.3h6.1v0.3c-2.2,0.3-2.2,0.8-2.2,2.7
				v5.9c0,0.9,0,1.9,0.3,2.7l2.2,0.2c2.7,0.2,3.2-0.6,4.6-3l0.2,0.1l-1,3.4h-10.1V32.4z"/>
			<path class="st0" d="M292.1,32.4c2.2-0.3,2.2-0.8,2.2-2.7v-6.4c-0.1-1.9-0.1-2.4-2.2-2.7v-0.3h9.7l-0.2,2.8h-0.3
				c-0.1-2.3-1.8-2.3-3.6-2.3H296v5.1h1.9c1.4,0,2.4-0.1,2.6-1.7h0.3v4h-0.3c-0.2-1.6-1.2-1.6-2.6-1.6H296v3c0,1.1-0.3,2.5,2.7,2.5
				c2.3,0,3.4-0.9,3.8-3.1h0.3c0,1.4-0.3,2.5-0.6,3.6h-10V32.4z"/>
			<path class="st0" d="M304.1,20.5l4.4-0.1c7.9-0.3,8.8,4.3,8.8,6.2c0,2.6-1.7,6.2-7.9,6.1l-5.4,0v-0.3c2.2-0.3,2.2-0.8,2.2-2.7
				v-6.3c-0.1-1.9-0.1-2.4-2.1-2.7V20.5z M307.9,29.9c0,1.2,0.2,2.4,2.5,2.4c2.1,0,4.9-1.3,4.9-5.4c0-4.3-3.4-6.1-7.3-6.1V29.9z"/>
			<path class="st0" d="M330.8,31.3v0.3c-1.9,0.8-3.4,1.3-5.5,1.3c-3.7,0-6.9-2.3-6.9-6.2c0-4,3.5-6.5,7.3-6.5
				c1.4,0,2.9,0.3,4.2,0.7l-0.1,3.1h-0.2c-0.5-2.1-1.9-3.4-4.1-3.4c-3.1,0-5,2.4-5,5.4c0,3.6,2.5,6.3,6.1,6.3c1.6,0,1.6-0.4,1.6-1.6
				v-1.1c0-2-0.5-2.2-2.4-2.5v-0.3h5.3v0.3c-1.3,0.3-1.3,0.8-1.3,1.9v2.3H330.8z"/>
			<path class="st0" d="M332,32.4c2.2-0.3,2.2-0.8,2.2-2.7v-6.4c-0.1-1.9-0.1-2.4-2.2-2.7v-0.3h9.7l-0.2,2.8h-0.3
				c-0.1-2.3-1.8-2.3-3.6-2.3h-1.8v5.1h1.9c1.4,0,2.4-0.1,2.6-1.7h0.3v4h-0.3c-0.2-1.6-1.2-1.6-2.6-1.6h-1.9v3
				c0,1.1-0.3,2.5,2.7,2.5c2.3,0,3.4-0.9,3.8-3.1h0.3c0,1.4-0.3,2.5-0.6,3.6h-10V32.4z"/>
		</g>
		<g>
			<path class="st0" d="M222.4,28.3c0.1,2.7,0.1,3.5,3.4,3.9v0.3h-8.9v-0.3c3.1-0.4,3.1-1.3,3.2-3.9v-9.1c-0.1-2.7-0.1-3.5-3.2-3.9
				V15h8.2v0.3c-2.6,0.4-2.7,1.3-2.7,3.9V28.3z M234,15v0.3c-2.9,0.3-4.9,2.9-6.8,4.9l-2.4,2.6l5.2,5.8c1.6,1.7,3.5,3.1,5.8,3.7
				l-0.3,0.3c-4.5-0.4-5-0.2-7.4-2.9l-5.3-5.7l4.2-4.5c2.7-3,2.2-4,0.5-4.1V15H234z"/>
		</g>
		<g>
			<path class="st0" d="M237.7,24.3c0-1.1,0.1-2.5-1.4-2.5v-0.3l3.2-1.2l0.2,0.1l-0.2,2c1.5-1.1,3.1-2.1,4.9-2.1
				c3.2,0,3.3,2.7,3.3,4.3v5c0,2.2,0.2,2.4,2.2,2.7v0.3h-6.3v-0.3c2-0.3,2.2-0.6,2.2-2.7v-3.2c0-1.9,0-4.8-3.3-4.8
				c-1.1,0-2,0.5-2.9,1.3v6.8c0,2.2,0.2,2.4,2.2,2.7l-0.2,0.3l-6.1,0v-0.3c2-0.3,2.2-0.6,2.2-2.7V24.3z"/>
		</g>
		<path class="st0" d="M284.2,35.2h1.3l2.6,6.7h-1.3l-0.6-1.8h-2.7l-0.6,1.8h-1.2L284.2,35.2z M283.8,39.2h2.1l-1-2.9h0L283.8,39.2z
			"/>
		<path class="st0" d="M290.6,35.2h1.2l1.2,5.2h0l1.4-5.2h1.2l1.3,5.2h0l1.3-5.2h1.2l-1.9,6.7h-1.2l-1.4-5.2h0l-1.4,5.2h-1.2
			L290.6,35.2z"/>
		<path class="st0" d="M300.1,35.2h1.1v1h-1.1V35.2z M300.1,37h1.1v4.9h-1.1V37z"/>
		<path class="st0" d="M302.4,35.2h1.1v6.7h-1.1V35.2z"/>
		<path class="st0" d="M305.4,39.8c0,0.2,0,0.4,0.1,0.5c0.1,0.2,0.1,0.3,0.2,0.5c0.1,0.1,0.2,0.2,0.4,0.3c0.2,0.1,0.4,0.1,0.6,0.1
			c0.3,0,0.6-0.1,0.8-0.2c0.2-0.1,0.3-0.3,0.4-0.6h1c-0.1,0.3-0.2,0.5-0.3,0.7c-0.1,0.2-0.3,0.4-0.5,0.5c-0.2,0.1-0.4,0.2-0.7,0.3
			c-0.2,0.1-0.5,0.1-0.8,0.1c-0.4,0-0.7-0.1-1-0.2c-0.3-0.1-0.5-0.3-0.8-0.5c-0.2-0.2-0.4-0.5-0.5-0.8c-0.1-0.3-0.2-0.7-0.2-1
			c0-0.3,0.1-0.7,0.2-1c0.1-0.3,0.3-0.6,0.5-0.8c0.2-0.2,0.5-0.4,0.7-0.6c0.3-0.1,0.6-0.2,1-0.2c0.4,0,0.7,0.1,1,0.2
			s0.6,0.4,0.8,0.6c0.2,0.3,0.3,0.6,0.4,0.9c0.1,0.3,0.1,0.7,0.1,1.1H305.4z M308,39.1c0-0.2,0-0.3-0.1-0.5
			c-0.1-0.2-0.1-0.3-0.2-0.4c-0.1-0.1-0.2-0.2-0.4-0.3c-0.1-0.1-0.3-0.1-0.5-0.1c-0.2,0-0.4,0-0.5,0.1c-0.2,0.1-0.3,0.2-0.4,0.3
			c-0.1,0.1-0.2,0.3-0.3,0.4c-0.1,0.2-0.1,0.3-0.1,0.5H308z"/>
		<path class="st0" d="M309.3,37h1.2l1.3,3.6h0L313,37h1.1l-1.9,5.1c-0.1,0.2-0.2,0.4-0.3,0.6c-0.1,0.2-0.2,0.4-0.3,0.5
			c-0.1,0.2-0.3,0.3-0.5,0.4c-0.2,0.1-0.4,0.1-0.7,0.1c-0.3,0-0.5,0-0.7-0.1v-0.9c0.1,0,0.2,0,0.3,0c0.1,0,0.2,0,0.3,0
			c0.1,0,0.2,0,0.3,0c0.1,0,0.1-0.1,0.2-0.1c0.1-0.1,0.1-0.1,0.1-0.2c0-0.1,0.1-0.2,0.1-0.3l0.1-0.4L309.3,37z"/>
		<path class="st0" d="M317.5,35.2h3.3c0.6,0,1.1,0.1,1.5,0.4c0.4,0.3,0.5,0.7,0.5,1.3c0,0.3-0.1,0.6-0.3,0.9
			c-0.2,0.2-0.4,0.4-0.7,0.6v0c0.4,0.1,0.7,0.3,0.9,0.6c0.2,0.3,0.3,0.7,0.3,1.1c0,0.3,0,0.5-0.1,0.7c-0.1,0.2-0.2,0.4-0.4,0.6
			c-0.2,0.2-0.5,0.3-0.8,0.4c-0.3,0.1-0.7,0.1-1.1,0.1h-3.1V35.2z M318.7,38h1.9c0.3,0,0.5-0.1,0.7-0.2c0.2-0.2,0.3-0.4,0.3-0.7
			c0-0.3-0.1-0.6-0.3-0.7c-0.2-0.1-0.4-0.2-0.7-0.2h-1.9V38z M318.7,41h2.1c0.4,0,0.6-0.1,0.8-0.3c0.2-0.2,0.3-0.4,0.3-0.8
			c0-0.3-0.1-0.6-0.3-0.8c-0.2-0.2-0.5-0.3-0.8-0.3h-2.1V41z"/>
		<path class="st0" d="M324,37h1V38h0c0-0.1,0.1-0.3,0.2-0.4c0.1-0.1,0.2-0.2,0.3-0.3c0.1-0.1,0.3-0.2,0.4-0.3
			c0.2-0.1,0.3-0.1,0.5-0.1c0.1,0,0.2,0,0.3,0c0,0,0.1,0,0.1,0v1c-0.1,0-0.2,0-0.2,0c-0.1,0-0.2,0-0.2,0c-0.2,0-0.4,0-0.5,0.1
			c-0.2,0.1-0.3,0.2-0.4,0.3c-0.1,0.1-0.2,0.3-0.3,0.5s-0.1,0.4-0.1,0.7v2.3H324V37z"/>
		<path class="st0" d="M331.4,40.8c0,0.1,0,0.2,0.1,0.3s0.1,0.1,0.2,0.1c0,0,0.1,0,0.1,0c0,0,0.1,0,0.2,0v0.7c0,0-0.1,0-0.1,0
			c-0.1,0-0.1,0-0.2,0c-0.1,0-0.1,0-0.2,0c-0.1,0-0.1,0-0.2,0c-0.2,0-0.4,0-0.5-0.1c-0.1-0.1-0.2-0.2-0.3-0.5
			c-0.2,0.2-0.5,0.4-0.8,0.5c-0.3,0.1-0.6,0.1-0.9,0.1c-0.2,0-0.4,0-0.6-0.1c-0.2-0.1-0.4-0.1-0.5-0.3c-0.2-0.1-0.3-0.3-0.4-0.4
			c-0.1-0.2-0.1-0.4-0.1-0.6c0-0.3,0.1-0.5,0.2-0.7c0.1-0.2,0.3-0.3,0.4-0.4c0.2-0.1,0.4-0.2,0.6-0.2c0.2,0,0.4-0.1,0.7-0.1
			c0.2,0,0.4-0.1,0.6-0.1c0.2,0,0.3,0,0.5-0.1c0.1,0,0.2-0.1,0.3-0.2c0.1-0.1,0.1-0.2,0.1-0.4c0-0.1,0-0.3-0.1-0.3
			c-0.1-0.1-0.1-0.2-0.2-0.2c-0.1,0-0.2-0.1-0.3-0.1c-0.1,0-0.2,0-0.3,0c-0.3,0-0.6,0.1-0.7,0.2c-0.2,0.1-0.3,0.3-0.3,0.6h-1.1
			c0-0.3,0.1-0.6,0.2-0.8c0.1-0.2,0.3-0.4,0.5-0.5s0.4-0.2,0.7-0.3c0.3-0.1,0.5-0.1,0.8-0.1c0.2,0,0.5,0,0.7,0.1
			c0.2,0.1,0.4,0.1,0.6,0.2c0.2,0.1,0.3,0.3,0.4,0.4c0.1,0.2,0.2,0.4,0.2,0.7V40.8z M330.4,39.5c-0.2,0.1-0.4,0.2-0.6,0.2
			c-0.2,0-0.5,0.1-0.7,0.1c-0.1,0-0.2,0-0.3,0.1c-0.1,0-0.2,0.1-0.3,0.1c-0.1,0.1-0.1,0.1-0.2,0.2c0,0.1-0.1,0.2-0.1,0.4
			c0,0.1,0,0.2,0.1,0.3c0.1,0.1,0.2,0.1,0.3,0.2c0.1,0,0.2,0.1,0.3,0.1c0.1,0,0.2,0,0.3,0c0.1,0,0.2,0,0.4,0c0.1,0,0.3-0.1,0.4-0.2
			c0.1-0.1,0.2-0.2,0.3-0.3c0.1-0.1,0.1-0.3,0.1-0.4V39.5z"/>
		<path class="st0" d="M332.6,37h1v0.7l0,0c0.2-0.3,0.4-0.5,0.6-0.6c0.3-0.2,0.6-0.2,0.9-0.2c0.5,0,1,0.1,1.3,0.4
			c0.3,0.3,0.5,0.7,0.5,1.2v3.4h-1.1v-3.1c0-0.4-0.1-0.7-0.2-0.8c-0.2-0.2-0.4-0.3-0.7-0.3c-0.2,0-0.3,0-0.5,0.1
			c-0.1,0.1-0.3,0.2-0.4,0.3c-0.1,0.1-0.2,0.3-0.2,0.4c-0.1,0.2-0.1,0.3-0.1,0.5v2.9h-1.1V37z"/>
		<path class="st0" d="M342.6,41.9h-1v-0.7h0c-0.1,0.3-0.4,0.5-0.6,0.6c-0.3,0.1-0.6,0.2-0.9,0.2c-0.4,0-0.7-0.1-1-0.2
			c-0.3-0.1-0.5-0.3-0.7-0.6c-0.2-0.2-0.3-0.5-0.4-0.8c-0.1-0.3-0.1-0.7-0.1-1c0-0.4,0.1-0.8,0.2-1.1c0.1-0.3,0.3-0.6,0.5-0.8
			c0.2-0.2,0.4-0.4,0.7-0.5c0.3-0.1,0.5-0.1,0.8-0.1c0.2,0,0.3,0,0.5,0c0.2,0,0.3,0.1,0.5,0.1c0.1,0.1,0.3,0.1,0.4,0.2
			c0.1,0.1,0.2,0.2,0.3,0.3h0v-2.5h1.1V41.9z M338.9,39.5c0,0.2,0,0.4,0.1,0.6c0.1,0.2,0.1,0.4,0.2,0.5c0.1,0.2,0.3,0.3,0.4,0.4
			c0.2,0.1,0.4,0.1,0.6,0.1c0.2,0,0.4-0.1,0.6-0.2c0.2-0.1,0.3-0.2,0.4-0.4c0.1-0.2,0.2-0.3,0.2-0.6c0.1-0.2,0.1-0.4,0.1-0.6
			c0-0.5-0.1-1-0.4-1.3c-0.2-0.3-0.6-0.5-1-0.5c-0.3,0-0.5,0.1-0.6,0.2c-0.2,0.1-0.3,0.2-0.4,0.4c-0.1,0.2-0.2,0.4-0.2,0.6
			C338.9,39.1,338.9,39.3,338.9,39.5z"/>
		<path class="st0" d="M128.7,32h-1.3V20.5h1.4v4.1c0.6-0.7,1.4-1.1,2.3-1.1c0.5,0,1,0.1,1.4,0.3c0.5,0.2,0.8,0.5,1.1,0.9
			c0.3,0.4,0.5,0.8,0.7,1.3c0.2,0.5,0.2,1.1,0.2,1.7c0,1.4-0.4,2.5-1.1,3.3c-0.7,0.8-1.5,1.2-2.5,1.2c-1,0-1.7-0.4-2.3-1.2V32z
			 M128.7,27.7c0,1,0.1,1.7,0.4,2.2c0.4,0.7,1,1.1,1.8,1.1c0.6,0,1.1-0.3,1.6-0.8c0.4-0.5,0.7-1.3,0.7-2.4c0-1.1-0.2-1.9-0.6-2.4
			c-0.4-0.5-0.9-0.8-1.6-0.8c-0.6,0-1.1,0.3-1.6,0.8C128.9,26,128.7,26.7,128.7,27.7z"/>
		<path class="st0" d="M136.2,35.1l-0.2-1.3c0.3,0.1,0.6,0.1,0.8,0.1c0.3,0,0.6-0.1,0.7-0.2c0.2-0.1,0.3-0.2,0.5-0.4
			c0.1-0.1,0.2-0.5,0.4-1c0-0.1,0.1-0.2,0.1-0.3l-3.1-8.3h1.5l1.7,4.8c0.2,0.6,0.4,1.2,0.6,1.9c0.2-0.6,0.4-1.3,0.6-1.9l1.8-4.8h1.4
			l-3.2,8.4c-0.3,0.9-0.6,1.5-0.8,1.9c-0.2,0.5-0.5,0.8-0.9,1c-0.3,0.2-0.7,0.3-1.2,0.3C136.9,35.3,136.6,35.3,136.2,35.1z"/>
		<g>
			<path class="st0" d="M15.9,18.2h-5.7v15H5.9v-15H0.1v-3.8h15.8V18.2z"/>
			<path class="st0" d="M21.3,33.4c-1.2,0-2.2-0.2-3.1-0.6c-0.9-0.4-1.7-0.9-2.4-1.5c-0.6-0.7-1.1-1.4-1.5-2.3
				c-0.3-0.9-0.5-1.8-0.5-2.7c0-1,0.2-2,0.5-2.8c0.3-0.9,0.8-1.7,1.5-2.3c0.6-0.7,1.4-1.2,2.3-1.6c0.9-0.4,2-0.6,3.2-0.6
				c1.2,0,2.2,0.2,3.1,0.6c0.9,0.4,1.7,0.9,2.3,1.6c0.6,0.7,1.1,1.4,1.4,2.3c0.3,0.9,0.5,1.8,0.5,2.7c0,0.2,0,0.5,0,0.7
				c0,0.2,0,0.4-0.1,0.6H18.4c0.1,0.9,0.4,1.6,1,2.1c0.6,0.5,1.3,0.7,2.1,0.7c0.6,0,1.2-0.1,1.8-0.4c0.6-0.3,1-0.7,1.2-1.2l3.6,1
				c-0.5,1.1-1.4,2-2.5,2.7C24.3,33.1,22.9,33.4,21.3,33.4z M24.3,24.9c-0.1-0.9-0.4-1.6-1-2.1c-0.5-0.5-1.2-0.8-2-0.8
				c-0.8,0-1.5,0.3-2.1,0.8c-0.5,0.5-0.9,1.2-0.9,2.1H24.3z"/>
			<path class="st0" d="M34.6,33.4c-0.7,0-1.3-0.1-1.9-0.3c-0.6-0.2-1.1-0.5-1.5-0.9c-0.4-0.4-0.8-0.9-1-1.4
				c-0.2-0.5-0.4-1.1-0.4-1.8c0-0.7,0.1-1.3,0.4-1.9c0.3-0.6,0.7-1,1.2-1.5c0.5-0.4,1.2-0.7,1.9-1c0.7-0.2,1.5-0.3,2.4-0.3
				c0.6,0,1.1,0,1.7,0.1c0.5,0.1,1,0.2,1.4,0.4v-0.6c0-1.6-0.9-2.4-2.8-2.4c-0.8,0-1.5,0.1-2.2,0.4c-0.7,0.3-1.4,0.6-2.2,1.2
				l-1.2-2.6c0.9-0.6,1.9-1,2.9-1.3c1-0.3,2-0.4,3.1-0.4c2.1,0,3.7,0.5,4.9,1.5c1.1,1,1.7,2.4,1.7,4.3v3.6c0,0.4,0.1,0.7,0.2,0.9
				c0.1,0.2,0.4,0.3,0.7,0.3v3.6c-0.4,0.1-0.7,0.1-1,0.2c-0.3,0-0.6,0-0.8,0c-0.8,0-1.4-0.2-1.8-0.5c-0.4-0.3-0.7-0.7-0.8-1.3
				L39.5,31c-0.6,0.8-1.4,1.4-2.2,1.8C36.5,33.2,35.6,33.4,34.6,33.4z M35.8,30.4c0.5,0,0.9-0.1,1.3-0.2s0.8-0.4,1.1-0.6
				c0.4-0.3,0.6-0.7,0.6-1v-1.3c-0.4-0.1-0.8-0.3-1.2-0.3c-0.4-0.1-0.8-0.1-1.2-0.1c-0.8,0-1.4,0.2-1.9,0.5
				c-0.5,0.4-0.8,0.8-0.8,1.4c0,0.5,0.2,0.9,0.6,1.3C34.8,30.2,35.2,30.4,35.8,30.4z"/>
			<path class="st0" d="M68.1,33.2h-4.2v-7.8c0-0.9-0.2-1.6-0.5-2c-0.3-0.4-0.8-0.6-1.3-0.6c-0.3,0-0.6,0.1-0.9,0.2
				c-0.3,0.1-0.6,0.3-0.8,0.5c-0.2,0.2-0.5,0.5-0.7,0.8c-0.2,0.3-0.4,0.6-0.5,1v8H55v-7.8c0-0.9-0.2-1.6-0.5-2
				c-0.3-0.4-0.8-0.6-1.3-0.6c-0.6,0-1.1,0.2-1.7,0.7c-0.5,0.4-0.9,1-1.2,1.8v8h-4.2V19.3H50v2.3c0.5-0.8,1.2-1.5,2.1-1.9
				c0.9-0.4,1.9-0.7,3.1-0.7c0.6,0,1.1,0.1,1.5,0.2c0.4,0.1,0.8,0.3,1.1,0.6c0.3,0.2,0.6,0.5,0.8,0.9c0.2,0.3,0.3,0.7,0.4,1
				c0.5-0.9,1.2-1.5,2.1-2c0.9-0.5,1.9-0.7,3-0.7c0.9,0,1.6,0.2,2.1,0.5c0.5,0.3,1,0.7,1.3,1.3c0.3,0.5,0.5,1.1,0.6,1.7
				c0.1,0.6,0.1,1.2,0.1,1.8V33.2z"/>
		</g>
		<g>
			<path class="st0" d="M78.9,16.9c-0.1-0.1-0.3-0.2-0.5-0.4c-0.2-0.1-0.4-0.3-0.7-0.4c-0.3-0.1-0.6-0.2-0.9-0.3
				c-0.3-0.1-0.7-0.1-1-0.1c-0.8,0-1.3,0.1-1.7,0.4c-0.4,0.3-0.5,0.7-0.5,1.2c0,0.3,0.1,0.5,0.2,0.7c0.1,0.2,0.3,0.3,0.5,0.5
				c0.2,0.1,0.5,0.3,0.9,0.4c0.4,0.1,0.8,0.2,1.3,0.3c0.6,0.1,1.1,0.3,1.6,0.5c0.5,0.2,0.9,0.4,1.2,0.6c0.3,0.3,0.6,0.6,0.8,0.9
				c0.2,0.4,0.3,0.8,0.3,1.3c0,0.6-0.1,1.1-0.3,1.5c-0.2,0.4-0.5,0.8-0.9,1c-0.4,0.3-0.8,0.5-1.3,0.6c-0.5,0.1-1.1,0.2-1.6,0.2
				c-0.9,0-1.7-0.1-2.6-0.4c-0.8-0.3-1.6-0.7-2.2-1.2l0.8-1.6c0.1,0.1,0.3,0.3,0.6,0.5c0.3,0.2,0.6,0.3,0.9,0.5
				c0.4,0.1,0.7,0.3,1.2,0.4c0.4,0.1,0.8,0.2,1.3,0.2c0.7,0,1.3-0.1,1.7-0.4c0.4-0.3,0.6-0.6,0.6-1.1c0-0.3-0.1-0.5-0.2-0.7
				c-0.1-0.2-0.4-0.4-0.6-0.5c-0.3-0.1-0.6-0.3-1-0.4c-0.4-0.1-0.8-0.2-1.3-0.4c-0.6-0.2-1.1-0.3-1.5-0.5c-0.4-0.2-0.8-0.4-1.1-0.6
				c-0.3-0.2-0.5-0.5-0.6-0.8c-0.1-0.3-0.2-0.7-0.2-1.2c0-0.6,0.1-1.1,0.3-1.5c0.2-0.4,0.5-0.8,0.9-1.1c0.4-0.3,0.8-0.5,1.3-0.7
				c0.5-0.2,1.1-0.2,1.7-0.2c0.8,0,1.5,0.1,2.2,0.4c0.7,0.3,1.2,0.6,1.7,0.9L78.9,16.9z"/>
			<path class="st0" d="M91.6,14.2v11.6h-1.8v-5.1h-5.8v5.1H82V14.2h1.8V19h5.8v-4.9H91.6z"/>
			<path class="st0" d="M94.2,25.8V14.2H96v11.6H94.2z"/>
			<path class="st0" d="M98.6,25.8V14.2h7.7v1.6h-5.9v3.5h4.9v1.5h-4.9v5H98.6z"/>
			<path class="st0" d="M116.6,15.8h-3.9v10h-1.8v-10H107v-1.6h9.6V15.8z"/>
		</g>
	</g>
</g>
</svg>
